<?xml version="1.0" encoding="UTF-8"?>
<svg width="400px" height="53px" viewBox="0 0 400 53" version="1.1" xmlns="http://www.w3.org/2000/svg" xmlns:xlink="http://www.w3.org/1999/xlink">
    <!-- Generator: Sketch 43.2 (39069) - http://www.bohemiancoding.com/sketch -->
    <title>Logo</title>
    <desc>Created with Sketch.</desc>
    <defs></defs>
    <g id="Page-1" stroke="none" stroke-width="1" fill="none" fill-rule="evenodd">
        <g id="GP-FF-Desktop-HD" transform="translate(-600.000000, -3275.000000)">
            <g id="Footer" transform="translate(0.000000, 3200.000000)">
                <g id="Logo" transform="translate(600.000000, 75.000000)">
                    <g id="White" transform="translate(0.000000, 0.460082)">
                        <polygon id="Fill-1" fill="#FFFFFF" points="90.8343424 6.23873181 120.551212 6.23873181 117.609643 14.2097928 101.039296 14.2097928 101.039296 20.9927704 117.609643 20.9927704 117.609643 28.7855265 101.039296 28.7855265 100.979245 43.3612601 90.8343424 43.3612601"></polygon>
                        <path d="M132.271757,35.2701897 L140.677032,35.2701897 L140.677032,14.2108091 L132.271757,14.2108091 L132.271757,35.2701897 Z M126.868102,43.4204795 C123.906208,43.4204795 122.125007,42.1704974 121.525422,39.6723809 C121.564224,34.4775181 121.584549,29.4997624 121.584549,24.7400375 C121.584549,19.9812364 121.564224,15.2427603 121.525422,10.5218375 C121.844153,8.97529647 122.445586,7.86574103 123.326024,7.19039963 C124.206462,6.51690595 125.386231,6.17877332 126.868102,6.17877332 L146.079763,6.17877332 C147.559787,6.17877332 148.740479,6.51690595 149.621841,7.19039963 C150.501356,7.86574103 151.101864,8.97529647 151.422444,10.5218375 C151.382718,15.2427603 151.362393,19.9812364 151.362393,24.7400375 C151.362393,29.4997624 151.382718,34.4775181 151.422444,39.6723809 C150.821935,42.1704974 149.040734,43.4204795 146.079763,43.4204795 L126.868102,43.4204795 Z" id="Fill-2" fill="#FFFFFF"></path>
                        <path d="M165.683234,43.4204795 L155.477356,43.4204795 L155.477356,25.5142319 L155.417305,25.454181 L155.477356,25.395054 L155.477356,6.23882419 L179.970723,6.17877332 C181.45167,6.17877332 182.632363,6.51690595 183.512801,7.19039963 C184.393239,7.86574103 184.993748,8.97529647 185.315251,10.5218375 L185.315251,16.5601842 L185.315251,20.0403635 L185.315251,21.8557477 L185.315251,22.8368866 C185.033474,24.1450719 184.564153,25.1372971 183.903594,25.8107908 C183.243034,26.4861322 182.372758,26.922194 181.292766,27.1198999 L181.292766,27.2982048 L177.44951,27.2982048 L185.254276,43.5387336 L174.749068,43.5387336 L167.123531,27.4173827 L167.123531,21.0519898 L174.567992,21.0519898 L174.567992,14.1507582 L165.322928,14.1507582 L165.683234,43.4204795 Z" id="Fill-4" fill="#FFFFFF"></path>
                        <path d="M218.199296,6.23873181 L215.257727,14.2097928 L198.688304,14.2097928 L198.688304,35.3292244 L218.199296,35.2700973 L215.317778,43.3612601 L191.363945,43.3612601 C190.803162,42.8060205 190.262704,42.3099078 189.743495,41.8738461 C189.222438,41.4377843 188.802082,40.7836917 188.482427,39.9106443 L188.482427,9.15350899 C188.802082,8.28138548 189.222438,7.65685636 189.743495,7.27992163 C190.262704,6.90298689 190.803162,6.55653952 191.363945,6.23873181 L218.199296,6.23873181 Z" id="Fill-5" fill="#FFFFFF"></path>
                        <polygon id="Fill-6" fill="#FFFFFF" points="220.540541 6.23873181 250.257411 6.23873181 247.315842 14.2097928 230.746419 14.2097928 230.746419 20.9927704 247.315842 20.9927704 247.315842 28.7855265 230.746419 28.7855265 230.746419 35.3292244 250.257411 35.2700973 247.37774 43.3612601 220.540541 43.3612601"></polygon>
                        <polygon id="Fill-7" fill="#FFFFFF" points="252.598656 6.23873181 282.316449 6.23873181 279.37488 14.2097928 262.805457 14.2097928 262.805457 20.9927704 279.37488 20.9927704 279.37488 28.7855265 262.805457 28.7855265 262.745406 43.3612601 252.598656 43.3612601"></polygon>
                        <polygon id="Fill-8" fill="#FFFFFF" points="294.503451 43.360983 284.417675 43.360983 284.417675 6.23845465 294.562578 6.23845465"></polygon>
                        <polygon id="Fill-9" fill="#FFFFFF" points="297.910184 6.23873181 327.627977 6.23873181 324.686408 14.2097928 308.116985 14.2097928 308.116985 20.9927704 324.686408 20.9927704 324.686408 28.7855265 308.116985 28.7855265 308.116985 35.3292244 327.627977 35.2700973 324.747382 43.3612601 297.910184 43.3612601"></polygon>
                        <polygon id="Fill-10" fill="#FFFFFF" points="339.994485 35.3895524 353.543811 35.3895524 356.486303 43.3606134 329.788607 43.3606134 329.788607 6.23900896 339.935358 6.23900896"></polygon>
                        <path d="M377.497459,35.270005 L377.497459,14.2106243 L368.551726,14.2106243 L368.492599,35.270005 L377.497459,35.270005 Z M358.406823,43.4202948 L358.406823,6.23863942 L382.901114,6.1795124 C384.381137,6.1795124 385.56183,6.51672117 386.443192,7.19021486 C387.32363,7.86555626 387.923215,8.97603555 388.244718,10.5216527 C388.203144,15.2425755 388.183743,19.9810517 388.183743,24.7407766 C388.183743,29.4995776 388.203144,34.4773334 388.244718,39.67312 C387.643285,42.1712365 385.863008,43.4202948 382.901114,43.4202948 L358.406823,43.4202948 Z" id="Fill-11" fill="#FFFFFF"></path>
                        <path d="M42.6831471,0.463777543 L42.6831471,0.463777543 L85.3663867,43.5387336 L51.0477724,43.5387336 C49.3691194,43.5387336 48.312224,43.7114953 47.311684,44.2611918 C46.159631,44.8912641 45.620097,45.7421388 44.9770906,47.0540195 C44.9798622,47.0540195 42.6831471,51.7361402 42.6831471,51.7361402 C42.6831471,51.7361402 40.3845843,47.0540195 40.3864321,47.0540195 C39.7434257,45.7421388 39.2038917,44.8912641 38.0546103,44.2611918 C37.0522226,43.7114953 35.9944033,43.5387336 34.3139026,43.5387336 L-9.23859646e-05,43.5387336 L42.6831471,0.463777543 Z" id="Fill-12" fill="#FFFFFF"></path>
                        <path d="M41.4408331,39.0497919 C39.4351338,39.7195902 36.4750875,40.5187288 32.6623187,40.5187288 C24.3217138,40.5187288 20.6863261,36.2652789 20.6863261,30.8320604 C20.6863261,24.5969316 25.6363661,20.8645386 32.8443191,20.8645386 C36.6108948,20.8645386 38.9122292,21.520479 41.3604573,22.533953 L41.3604573,26.9453828 L40.7266896,26.9453828 C38.9547268,25.5873092 36.9203878,24.4121597 33.5464524,24.4121597 C29.2883833,24.4121597 26.6064187,26.7735449 26.6064187,30.590933 C26.6064187,33.9519344 28.283224,37.0828947 33.7192141,36.8888842 C34.2642913,36.8685593 35.1733692,36.7512291 35.7637155,36.5720004 L35.7637155,33.0825825 L31.3005496,33.0825825 L31.3005496,29.5414284 L41.4408331,29.5414284 L41.4408331,39.0497919 Z" id="Fill-13" fill="#000000"></path>
                        <path d="M56.8811146,27.5335119 C56.8811146,28.9063673 56.1374076,29.5918712 55.3548984,29.9540242 C54.6278209,30.2940045 53.5598391,30.4131824 52.599949,30.4131824 L49.8145121,30.4131824 L49.8145121,24.8164407 L52.599949,24.8164407 C53.5598391,24.8164407 54.6278209,24.8598621 55.3548984,25.1952231 C56.1374076,25.5601477 56.8811146,26.1606565 56.8811146,27.5335119 M59.7423079,22.3866898 C58.1874521,21.5090231 56.1706665,21.2725151 53.8785707,21.2725151 L44.1327753,21.2725151 L44.1327753,40.1146326 L49.8145121,40.1146326 L49.8145121,33.963575 L53.7418395,33.963575 C55.9535595,33.963575 58.0350153,33.693808 59.7053535,32.7533189 C61.6740984,31.6409919 62.717136,29.8912017 62.717136,27.2175519 C62.717136,24.87372 61.7175198,23.5036361 59.7423079,22.3866898" id="Fill-14" fill="#000000"></path>
                        <path d="M395.356774,8.90148008 L394.626925,8.90148008 L394.626925,10.6558895 L395.398348,10.6558895 C395.759577,10.6558895 396.030268,10.619859 396.212268,10.547798 C396.544858,10.415686 396.712076,10.1634724 396.712076,9.79023306 C396.712076,9.43824253 396.603985,9.20173446 396.389649,9.08163271 C396.17439,8.96153096 395.830714,8.90148008 395.356774,8.90148008 Z M395.467637,8.31852464 C396.06907,8.31852464 396.508827,8.3767278 396.790604,8.49313412 C397.291336,8.7019264 397.540778,9.11027236 397.540778,9.72001973 C397.540778,10.1533099 397.382798,10.4720415 397.067762,10.6762145 C396.900544,10.784306 396.667731,10.8628341 396.369324,10.9108748 C396.748107,10.9700018 397.024341,11.1289057 397.199874,11.3848148 C397.374484,11.6407239 397.463174,11.8910899 397.463174,12.1349888 L397.463174,12.4888271 C397.463174,12.601538 397.46687,12.7207159 397.475184,12.8491323 C397.483499,12.9775488 397.497357,13.0616201 397.517682,13.101346 L397.546322,13.1613969 L396.748107,13.1613969 C396.743488,13.1447674 396.739792,13.1290618 396.735173,13.1133562 C396.731477,13.0976506 396.727782,13.0791734 396.723163,13.0597723 L396.706533,12.9036401 L396.706533,12.5202383 C396.706533,11.9613032 396.554096,11.5917594 396.249223,11.4125306 C396.06907,11.3090583 395.75311,11.2563983 395.299495,11.2563983 L394.626925,11.2563983 L394.626925,13.1613969 L393.773279,13.1613969 L393.773279,8.31852464 L395.467637,8.31852464 Z M391.76758,10.7575141 C391.76758,11.8153334 392.133428,12.7170204 392.866973,13.4616513 C393.603289,14.2062822 394.498509,14.5795215 395.552633,14.5795215 C396.604909,14.5795215 397.501052,14.2062822 398.238292,13.4616513 C398.974609,12.7170204 399.342305,11.8153334 399.342305,10.7575141 C399.342305,9.70800955 398.974609,8.81278955 398.238292,8.07185412 C397.497357,7.32722324 396.601213,6.9549078 395.552633,6.9549078 C394.506823,6.9549078 393.613451,7.32722324 392.872516,8.07185412 C392.1362,8.81278955 391.76758,9.70800955 391.76758,10.7575141 Z M395.552633,15.1800302 C394.330366,15.1800302 393.291024,14.7476639 392.433682,13.8820074 C391.58096,13.0209702 391.154137,11.9779327 391.154137,10.751971 C391.154137,9.53801938 391.584655,8.50052499 392.445693,7.6394878 C393.303034,6.78214605 394.338681,6.35347517 395.552633,6.35347517 C396.773975,6.35347517 397.815165,6.78214605 398.677126,7.6394878 C399.537239,8.49682955 399.967758,9.53432394 399.967758,10.751971 C399.967758,11.9733134 399.537239,13.0172748 398.677126,13.8820074 C397.815165,14.7476639 396.773975,15.1800302 395.552633,15.1800302 Z" id="Fill-15" fill="#FFFFFF"></path>
                    </g>
                </g>
            </g>
        </g>
    </g>
</svg>