<?xml version="1.0" encoding="utf-8"?>
<!-- Generator: Adobe Illustrator 21.1.0, SVG Export Plug-In . SVG Version: 6.00 Build 0)  -->
<svg version="1.1" id="Layer_1" xmlns="http://www.w3.org/2000/svg" xmlns:xlink="http://www.w3.org/1999/xlink" x="0px" y="0px"
	 viewBox="0 0 360 360" style="enable-background:new 0 0 360 360;" xml:space="preserve">
<style type="text/css">
	.st0{fill:#495057;}
	.st1{fill:none;stroke:#495057;stroke-width:10;stroke-miterlimit:10;}
</style>
<g id="Toilet_Paper_Roll">
	<path class="st0" d="M105.4,56.6h117.9c25.9,0,47.8,47.3,47.8,103.1c0,56-21.8,103.1-47.8,103.1H103c-3.2,5.7-6.7,10.9-10.3,15.3
		h130.7c35.3,0,63-52,63-118.4s-27.7-118.4-63-118.4H96.1C99.4,45.8,102.6,50.9,105.4,56.6z"/>
	<path class="st0" d="M155.1,159c0,67.4-28.1,120.1-63.9,120.1s-64-52.7-64-120.1S55.3,38.9,91.1,38.9
		C127,38.9,155.1,91.6,155.1,159z M42.7,159c0,56.7,22.2,104.6,48.5,104.6s48.5-47.9,48.5-104.6S117.5,54.4,91.2,54.4
		S42.7,102.3,42.7,159z"/>
	<path class="st0" d="M103.1,157.1c0,16.8-4.9,34.9-15.7,34.9s-15.7-18.1-15.7-34.9s4.9-34.9,15.7-34.9
		C98.1,122.2,103.1,140.3,103.1,157.1z M81.4,157.1c0,15.8,4.4,24.4,6.2,25.1c1.3-0.8,5.7-9.4,5.7-25.1s-4.4-24.4-6.2-25.1
		C85.8,132.7,81.4,141.3,81.4,157.1z"/>
	<line class="st1" x1="82.6" y1="272.2" x2="360" y2="355.4"/>
	<line class="st1" x1="229" y1="273.1" x2="360" y2="312.4"/>
</g>
<path class="st0" d="M352,8v344H8V8H352 M360,0H0v360h360V0z"/>
</svg>
