<?xml version="1.0" encoding="utf-8"?>
<!-- Generator: Adobe Illustrator 21.1.0, SVG Export Plug-In . SVG Version: 6.00 Build 0)  -->
<svg version="1.1" id="Layer_1" xmlns="http://www.w3.org/2000/svg" xmlns:xlink="http://www.w3.org/1999/xlink" x="0px" y="0px"
	 viewBox="0 0 360 360" style="enable-background:new 0 0 360 360;" xml:space="preserve">
<style type="text/css">
	.st0{fill:#495057;}
</style>
<g id="Toilet_Paper_Roll">
	<path class="st0" d="M274.7,214.1v19.6c6.3,6.2,9.9,13,9.9,20.2c0,26.3-47.9,48.5-104.6,48.5c-56.7,0-104.6-22.2-104.6-48.5
		c0-7.9,4.3-15.3,11.8-22v-19c-17.1,11-27.3,25.3-27.3,41c0,35.9,52.8,63.9,120.1,63.9c67.4,0,120.1-28.1,120.1-63.9
		C300.1,238.7,290.7,224.9,274.7,214.1z"/>
	<path class="st0" d="M267.9,140.9v100.5c0,22.1-40.3,40.7-87.9,40.7c-47.7,0-87.9-18.6-87.9-40.7V138.8c-4.9-2.7-9.3-5.7-13-8.8
		v111.4c0,30.1,44.3,53.7,100.9,53.7c56.6,0,100.9-23.6,100.9-53.7V133C277.1,135.8,272.7,138.5,267.9,140.9z"/>
	<path class="st0" d="M180,170.1c-67.4,0-120.1-28.1-120.1-63.9S112.6,42.2,180,42.2c67.4,0,120.1,28.1,120.1,63.9
		C300.1,142,247.4,170.1,180,170.1z M180,57.7c-56.7,0-104.6,22.2-104.6,48.5s47.9,48.5,104.6,48.5c56.7,0,104.6-22.2,104.6-48.5
		S236.7,57.7,180,57.7z"/>
	<path class="st0" d="M181.9,118.1c-16.8,0-34.9-4.9-34.9-15.7c0-10.8,18.1-15.7,34.9-15.7s34.9,4.9,34.9,15.7
		C216.8,113.1,198.7,118.1,181.9,118.1z M181.9,96.4c-15.8,0-24.4,4.4-25.1,6.2c0.8,1.3,9.4,5.7,25.1,5.7s24.4-4.4,25.1-6.2
		C206.3,100.8,197.7,96.4,181.9,96.4z"/>
	<g>
		<path class="st0" d="M180,226.7c-52.4,0-96.6-18.6-96.6-40.6h5c0,8.5,9.5,17.3,26,24.1c17.8,7.4,41.1,11.5,65.6,11.5
			s47.7-4.1,65.6-11.5c16.5-6.9,26-15.7,26-24.1h5C276.6,208.1,232.4,226.7,180,226.7z"/>
	</g>
</g>
<g>
	<path class="st0" d="M352,8v344H8V8H352 M360,0H0v360h360V0L360,0z"/>
</g>
</svg>
