<?xml version="1.0" encoding="utf-8"?>
<!-- Generator: Adobe Illustrator 21.1.0, SVG Export Plug-In . SVG Version: 6.00 Build 0)  -->
<svg version="1.1" xmlns="http://www.w3.org/2000/svg" xmlns:xlink="http://www.w3.org/1999/xlink" x="0px" y="0px"
	 viewBox="0 0 360 360" style="enable-background:new 0 0 360 360;" xml:space="preserve">
<style type="text/css">
	.st0{display:none;}
	.st1{display:inline;fill:#94A3B2;}
	.st2{font-family:'OpenSans-Semibold';}
	.st3{font-size:46.3536px;}
	.st4{display:none;fill:none;stroke:#231F20;stroke-width:10;stroke-miterlimit:10;}
	.st5{fill:#495057;}
</style>
<g id="Layer_4">
	<g class="st0">
		<polygon class="st1" points="0,220.8 0,291.6 180,111.6 360,291.6 360,220.8 180,40.8 		"/>
	</g>
	<path class="st0" d="M271.4,224.2l-3.9-3.9c-23,21.4-53.7,34.5-87.5,34.5s-64.5-13.1-87.5-34.5l-3.9,3.9
		c24,22.4,56.1,36.1,91.4,36.1S247.4,246.5,271.4,224.2z"/>
	<text transform="matrix(1 0 0 1 154.7624 305.7272)" class="st0 st2 st3">90ยบ</text>
	<polyline class="st4" points="221.7,183.5 178.4,140.3 135.6,183.2 	"/>
	<g>
		<g>
			<path class="st5" d="M87.9,211H3.4v15.8h84.5c12.1,0,22,9.9,22,22c0,10.8-8.8,19.6-19.6,19.6c-9.6,0-17.4-7.8-17.4-17.4H57.1
				c0,18.3,14.9,33.2,33.2,33.2c19.5,0,35.4-15.9,35.4-35.4C125.7,228,108.7,211,87.9,211z"/>
		</g>
	</g>
	<g>
		<g>
			<path class="st5" d="M151.8,85c-27.5,0-49.8,22.4-49.8,49.8h15.8c0-18.8,15.3-34,34-34c20.8,0,37.7,16.9,37.7,37.7
				c0,23-18.7,41.7-41.7,41.7H3.8V196h144c31.7,0,57.5-25.8,57.5-57.5C205.3,109,181.3,85,151.8,85z"/>
		</g>
	</g>
	<g>
		<g>
			<path class="st5" d="M60,103.8c-15.4,0-28,12.6-28,28h15.8c0-6.7,5.5-12.2,12.2-12.2c7.7,0,14,6.3,14,14
				c0,8.8-7.1,15.9-15.9,15.9H3.4v15.8h54.7c17.5,0,31.7-14.2,31.7-31.7C89.8,117.1,76.4,103.8,60,103.8z"/>
		</g>
	</g>
	<g>
		<path class="st5" d="M273.1,262.3c-33.2,0-60.3-27-60.3-60.3c0-31.1,49.6-94.8,55.3-101.9c1.2-1.5,3.1-2.4,5-2.4
			c2,0,3.8,0.9,5,2.4c5.7,7.2,55.3,70.9,55.3,101.9C333.4,235.3,306.3,262.3,273.1,262.3z M273.1,114.6
			c-16.8,22.3-47.5,67.1-47.5,87.4c0,26.2,21.3,47.5,47.5,47.5s47.5-21.3,47.5-47.5C320.6,181.7,289.9,136.9,273.1,114.6z"/>
		<path class="st5" d="M273.1,236.7c-3.5,0-6.4-2.9-6.4-6.4s2.9-6.4,6.4-6.4c12,0,21.8-9.8,21.8-21.8c0-3.5,2.9-6.4,6.4-6.4
			c3.5,0,6.4,2.9,6.4,6.4C307.7,221.1,292.2,236.7,273.1,236.7z"/>
	</g>
</g>
<g id="Layer_3">
	<g>
		<path class="st5" d="M352,8v344H8V8H352 M360,0H0v360h360V0L360,0z"/>
	</g>
</g>
</svg>
