<?xml version="1.0" encoding="utf-8"?>
<!-- Generator: Adobe Illustrator 21.1.0, SVG Export Plug-In . SVG Version: 6.00 Build 0)  -->
<svg version="1.1" id="Layer_1" xmlns="http://www.w3.org/2000/svg" xmlns:xlink="http://www.w3.org/1999/xlink" x="0px" y="0px"
	 viewBox="0 0 360 360" style="enable-background:new 0 0 360 360;" xml:space="preserve">
<style type="text/css">
	.st0{display:none;}
	.st1{display:inline;}
	.st2{fill:#94A3B2;}
	.st3{display:inline;fill:none;stroke:#231F20;stroke-width:10;stroke-miterlimit:10;}
	.st4{display:inline;fill:none;stroke:#231F20;stroke-width:5;stroke-miterlimit:10;}
	.st5{fill:#495057;}
</style>
<g id="Layer_4" class="st0">
	<g class="st1">
		<polygon class="st2" points="0,234.6 0,305.4 180,125.4 360,305.4 360,234.6 180,54.6 		"/>
	</g>
	<path class="st1" d="M271.4,238l-3.9-3.9c-23,21.4-53.7,34.5-87.5,34.5s-64.5-13.1-87.5-34.5l-3.9,3.9c24,22.4,56.1,36.1,91.4,36.1
		S247.4,260.3,271.4,238z"/>
	<polyline class="st3" points="221.7,197.3 178.4,154.1 135.6,197 	"/>
	<polyline class="st4" points="118.7,232.4 90.4,236 93.9,264 	"/>
	<polyline class="st4" points="269.1,262.8 271.2,234.4 243.1,232.3 	"/>
</g>
<g id="Layer_2">
	<path d="M360.5,208h-361v-56c0,0,77.5,0,98.5,0s30,30,58,29c14-0.5,28.1-1,49-1c22,0,32-28,56-28c25,0,99.5,0,99.5,0V208z"/>
</g>
<g id="Layer_3">
	<g>
		<path class="st5" d="M352,8v344H8V8H352 M360,0H0v360h360V0L360,0z"/>
	</g>
</g>
</svg>
